<svg width="256" height="256" viewBox="0 0 256 256" xmlns="http://www.w3.org/2000/svg">
  <defs>
    <radialGradient id="orbGradient" cx="28%" cy="18%" r="90%">
      <stop offset="0%" stop-color="#7df5ff" />
      <stop offset="45%" stop-color="#7f5cff" />
      <stop offset="100%" stop-color="#ff5fd3" />
    </radialGradient>
    <linearGradient id="bandGradientTop" x1="0%" y1="0%" x2="100%" y2="100%">
      <stop offset="0%" stop-color="#8cf6ff" />
      <stop offset="55%" stop-color="#9169ff" />
      <stop offset="100%" stop-color="#ff7fdb" />
    </linearGradient>
    <linearGradient id="bandGradientMid" x1="0%" y1="40%" x2="100%" y2="0%">
      <stop offset="0%" stop-color="#5cf7ff" />
      <stop offset="55%" stop-color="#7a5cff" />
      <stop offset="100%" stop-color="#ff72d6" />
    </linearGradient>
    <linearGradient id="bandGradientBottom" x1="10%" y1="80%" x2="90%" y2="20%">
      <stop offset="0%" stop-color="#5df4ff" />
      <stop offset="60%" stop-color="#7c63ff" />
      <stop offset="100%" stop-color="#ff6dc7" />
    </linearGradient>
    <linearGradient id="circuitGradient" x1="0%" y1="100%" x2="100%" y2="0%">
      <stop offset="0%" stop-color="rgba(255, 255, 255, 0.65)" />
      <stop offset="100%" stop-color="rgba(255, 255, 255, 0.1)" />
    </linearGradient>
    <clipPath id="orbClip">
      <circle cx="128" cy="128" r="110" />
    </clipPath>
    <filter id="glow">
      <feGaussianBlur stdDeviation="12" result="blur" />
      <feMerge>
        <feMergeNode in="blur" />
        <feMergeNode in="SourceGraphic" />
      </feMerge>
    </filter>
  </defs>
  <circle cx="128" cy="128" r="122" fill="#040510" />
  <circle cx="128" cy="128" r="118" fill="url(#orbGradient)" />
  <g clip-path="url(#orbClip)" filter="url(#glow)">
    <path
      d="M-18 94C38 24 146 12 244 72"
      fill="none"
      stroke="url(#bandGradientTop)"
      stroke-width="46"
      stroke-linecap="round"
      stroke-linejoin="round"
    />
    <path
      d="M-36 148C52 90 164 96 276 152"
      fill="none"
      stroke="url(#bandGradientMid)"
      stroke-width="48"
      stroke-linecap="round"
      stroke-linejoin="round"
    />
    <path
      d="M-16 212C66 180 164 210 270 254"
      fill="none"
      stroke="url(#bandGradientBottom)"
      stroke-width="44"
      stroke-linecap="round"
      stroke-linejoin="round"
    />
    <path
      d="M52 96c34-24 86-22 126 6"
      fill="none"
      stroke="url(#circuitGradient)"
      stroke-width="5"
      stroke-linecap="round"
      stroke-linejoin="round"
      stroke-dasharray="18 12"
      opacity="0.8"
    />
    <path
      d="M34 158c42-28 106-18 150 22"
      fill="none"
      stroke="url(#circuitGradient)"
      stroke-width="4"
      stroke-linecap="round"
      stroke-linejoin="round"
      stroke-dasharray="14 10"
      opacity="0.72"
    />
    <path
      d="M58 202c38 6 74 26 102 54"
      fill="none"
      stroke="url(#circuitGradient)"
      stroke-width="3.5"
      stroke-linecap="round"
      stroke-linejoin="round"
      stroke-dasharray="12 10"
      opacity="0.7"
    />
  </g>
  <circle
    cx="128"
    cy="128"
    r="118"
    fill="none"
    stroke="rgba(255, 255, 255, 0.3)"
    stroke-width="1.2"
  />
</svg>
